<svg width="41" height="22" viewBox="0 0 41 22" fill="none" xmlns="http://www.w3.org/2000/svg">
<rect x="1.15885" y="1.11978" width="38.213" height="19.7654" rx="1.97654" stroke="#4F587E" style="stroke:#4F587E;stroke:color(display-p3 0.3098 0.3451 0.4941);stroke-opacity:1;" stroke-width="1.31769"/>
<path d="M3.14062 4.40625L37.4006 4.40625" stroke="#4F587E" style="stroke:#4F587E;stroke:color(display-p3 0.3098 0.3451 0.4941);stroke-opacity:1;" stroke-width="0.658845" stroke-linecap="round"/>
<path d="M4.96431 12.1732L4.55319 14.0391H3.61499L5.39651 6.66H6.60879L8.35868 14.0391H7.42048L7.01991 12.1732H4.96431ZM6.85124 11.3826L5.98684 7.35574L5.13297 11.3826H6.85124ZM13.6299 12.3735C13.6299 12.9779 13.4893 13.4066 13.2082 13.6596C12.9341 13.9126 12.4773 14.0391 11.8378 14.0391H9.72949V6.66H11.7113C12.3368 6.66 12.7936 6.7865 13.0817 7.03949C13.3769 7.29249 13.5244 7.71415 13.5244 8.30447V8.90534C13.5244 9.44647 13.3312 9.85408 12.9447 10.1282C13.4015 10.3812 13.6299 10.8134 13.6299 11.4248V12.3735ZM12.6073 8.2096C12.6073 7.94255 12.5441 7.74929 12.4176 7.62982C12.2981 7.51035 12.1048 7.45061 11.8378 7.45061H10.6466V9.78029H11.8378C12.0556 9.78029 12.2384 9.71001 12.386 9.56946C12.5335 9.4289 12.6073 9.24267 12.6073 9.01076V8.2096ZM12.7127 11.3299C12.7127 11.098 12.6425 10.9153 12.5019 10.7817C12.3614 10.6412 12.1751 10.5709 11.9432 10.5709H10.6466V13.2484H11.9327C12.1997 13.2484 12.3965 13.1887 12.523 13.0692C12.6495 12.9427 12.7127 12.746 12.7127 12.4789V11.3299ZM17.5728 14.0391C16.9614 14.0391 16.4905 13.8915 16.1602 13.5963C15.837 13.2941 15.6753 12.8444 15.6753 12.247V8.45206C15.6753 7.8547 15.837 7.40845 16.1602 7.11328C16.4905 6.81109 16.9614 6.66 17.5728 6.66H19.0697V7.46115H17.4674C17.2074 7.46115 16.9965 7.53846 16.8349 7.69307C16.6732 7.84768 16.5924 8.03391 16.5924 8.25177V12.4473C16.5924 12.6652 16.6732 12.8514 16.8349 13.006C16.9965 13.1606 17.2074 13.2379 17.4674 13.2379H19.0697V14.0391H17.5728ZM22.7807 13.2484V7.49278L21.2944 8.04094V7.18707L22.6753 6.66H23.6767V13.2484H24.8258V14.0391H21.3998V13.2484H22.7807ZM28.7055 10.7079C28.9303 10.3847 29.0814 10.1563 29.1587 10.0227C29.2431 9.88219 29.2993 9.74164 29.3274 9.60108C29.3555 9.46053 29.3696 9.25673 29.3696 8.98967V8.25177C29.3696 8.03391 29.2888 7.84768 29.1271 7.69307C28.9655 7.53846 28.7547 7.46115 28.4946 7.46115H27.2296V6.66H28.3892C29.0006 6.66 29.468 6.81109 29.7912 7.11328C30.1215 7.40845 30.2867 7.8547 30.2867 8.45206V8.8948C30.2867 9.24618 30.2621 9.53081 30.2129 9.74866C30.1637 9.96652 30.0934 10.1598 30.0021 10.3284C29.9107 10.4971 29.7596 10.7325 29.5488 11.0347L27.9886 13.2379H30.4975V14.0391H27.0188V13.1114L28.7055 10.7079ZM36.0217 12.3735C36.0217 12.9568 35.8811 13.382 35.6 13.649C35.3189 13.9091 34.8621 14.0391 34.2296 14.0391H32.8803V13.2484H34.3245C34.5916 13.2484 34.7883 13.1887 34.9148 13.0692C35.0413 12.9427 35.1046 12.746 35.1046 12.4789V11.3931C35.1046 11.1612 35.0343 10.9785 34.8937 10.845C34.7532 10.7044 34.567 10.6342 34.335 10.6342H33.2071V9.84354H34.2296C34.4475 9.84354 34.6302 9.77326 34.7778 9.63271C34.9254 9.49215 34.9992 9.30592 34.9992 9.07401V8.2096C34.9992 7.94255 34.9359 7.74929 34.8094 7.62982C34.6899 7.51035 34.4967 7.45061 34.2296 7.45061H32.8803V6.66H34.1031C34.7005 6.66 35.1503 6.79352 35.4524 7.06057C35.7617 7.3206 35.9163 7.73523 35.9163 8.30447V8.96859C35.9163 9.50972 35.723 9.91733 35.3365 10.1914C35.7933 10.4444 36.0217 10.8766 36.0217 11.488V12.3735Z" fill="#4F587E" style="fill:#4F587E;fill:color(display-p3 0.3098 0.3451 0.4941);fill-opacity:1;"/>
<path d="M3.14062 16.6797L37.4006 16.6797" stroke="#4F587E" style="stroke:#4F587E;stroke:color(display-p3 0.3098 0.3451 0.4941);stroke-opacity:1;" stroke-width="0.658845" stroke-linecap="round"/>
</svg>
