<svg width="30" height="17" viewBox="0 0 30 17" fill="none" xmlns="http://www.w3.org/2000/svg">
<rect x="0.5" y="0.75" width="29" height="15" rx="1.5" stroke="white"/>
<path d="M2 3.25L28 3.25" stroke="white" stroke-width="0.5" stroke-linecap="round"/>
<path d="M3.384 9.834L3.072 11.25H2.36L3.712 5.65H4.632L5.96 11.25H5.248L4.944 9.834H3.384ZM4.816 9.234L4.16 6.178L3.512 9.234H4.816ZM9.96031 9.986C9.96031 10.4447 9.85365 10.77 9.64031 10.962C9.43231 11.154 9.08565 11.25 8.60031 11.25H7.00031V5.65H8.50431C8.97898 5.65 9.32565 5.746 9.54431 5.938C9.76831 6.13 9.88031 6.45 9.88031 6.898V7.354C9.88031 7.76467 9.73365 8.074 9.44031 8.282C9.78698 8.474 9.96031 8.802 9.96031 9.266V9.986ZM9.18431 6.826C9.18431 6.62333 9.13631 6.47667 9.04031 6.386C8.94965 6.29533 8.80298 6.25 8.60031 6.25H7.69631V8.018H8.60031C8.76565 8.018 8.90431 7.96467 9.01631 7.858C9.12831 7.75133 9.18431 7.61 9.18431 7.434V6.826ZM9.26431 9.194C9.26431 9.018 9.21098 8.87933 9.10431 8.778C8.99765 8.67133 8.85631 8.618 8.68031 8.618H7.69631V10.65H8.67231C8.87498 10.65 9.02431 10.6047 9.12031 10.514C9.21631 10.418 9.26431 10.2687 9.26431 10.066V9.194ZM12.9526 11.25C12.4886 11.25 12.1313 11.138 11.8806 10.914C11.6353 10.6847 11.5126 10.3433 11.5126 9.89V7.01C11.5126 6.55667 11.6353 6.218 11.8806 5.994C12.1313 5.76467 12.4886 5.65 12.9526 5.65H14.0886V6.258H12.8726C12.6753 6.258 12.5153 6.31667 12.3926 6.434C12.27 6.55133 12.2086 6.69267 12.2086 6.858V10.042C12.2086 10.2073 12.27 10.3487 12.3926 10.466C12.5153 10.5833 12.6753 10.642 12.8726 10.642H14.0886V11.25H12.9526ZM16.9049 10.65V6.282L15.7769 6.698V6.05L16.8249 5.65H17.5849V10.65H18.4569V11.25H15.8569V10.65H16.9049ZM21.4013 8.722C21.5719 8.47667 21.6866 8.30333 21.7453 8.202C21.8093 8.09533 21.8519 7.98867 21.8733 7.882C21.8946 7.77533 21.9053 7.62067 21.9053 7.418V6.858C21.9053 6.69267 21.8439 6.55133 21.7213 6.434C21.5986 6.31667 21.4386 6.258 21.2413 6.258H20.2812V5.65H21.1613C21.6253 5.65 21.9799 5.76467 22.2253 5.994C22.4759 6.218 22.6013 6.55667 22.6013 7.01V7.346C22.6013 7.61267 22.5826 7.82867 22.5453 7.994C22.5079 8.15933 22.4546 8.306 22.3853 8.434C22.3159 8.562 22.2013 8.74067 22.0413 8.97L20.8573 10.642H22.7613V11.25H20.1213V10.546L21.4013 8.722ZM26.9536 9.986C26.9536 10.4287 26.8469 10.7513 26.6336 10.954C26.4202 11.1513 26.0736 11.25 25.5936 11.25H24.5696V10.65H25.6656C25.8682 10.65 26.0176 10.6047 26.1136 10.514C26.2096 10.418 26.2576 10.2687 26.2576 10.066V9.242C26.2576 9.066 26.2042 8.92733 26.0976 8.826C25.9909 8.71933 25.8496 8.666 25.6736 8.666H24.8176V8.066H25.5936C25.7589 8.066 25.8976 8.01267 26.0096 7.906C26.1216 7.79933 26.1776 7.658 26.1776 7.482V6.826C26.1776 6.62333 26.1296 6.47667 26.0336 6.386C25.9429 6.29533 25.7962 6.25 25.5936 6.25H24.5696V5.65H25.4976C25.9509 5.65 26.2922 5.75133 26.5216 5.954C26.7562 6.15133 26.8736 6.466 26.8736 6.898V7.402C26.8736 7.81267 26.7269 8.122 26.4336 8.33C26.7802 8.522 26.9536 8.85 26.9536 9.314V9.986Z" fill="white"/>
<path d="M2 13.25L28 13.25" stroke="white" stroke-width="0.5" stroke-linecap="round"/>
</svg>
