<svg width="16" height="17" viewBox="0 0 16 17" fill="none" xmlns="http://www.w3.org/2000/svg">
<path d="M16 0.916667V4.25C16 4.42681 15.9298 4.59638 15.8047 4.7214C15.6797 4.84643 15.5101 4.91667 15.3333 4.91667C15.1565 4.91667 14.987 4.84643 14.8619 4.7214C14.7369 4.59638 14.6667 4.42681 14.6667 4.25V1.58333H12C11.8232 1.58333 11.6536 1.5131 11.5286 1.38807C11.4036 1.26305 11.3333 1.09348 11.3333 0.916667C11.3333 0.739856 11.4036 0.570287 11.5286 0.445262C11.6536 0.320238 11.8232 0.25 12 0.25H15.3333C15.5101 0.25 15.6797 0.320238 15.8047 0.445262C15.9298 0.570287 16 0.739856 16 0.916667ZM4 14.9167H1.33333V12.25C1.33333 12.0732 1.2631 11.9036 1.13807 11.7786C1.01305 11.6536 0.843478 11.5833 0.666667 11.5833C0.489856 11.5833 0.320287 11.6536 0.195262 11.7786C0.070238 11.9036 0 12.0732 0 12.25V15.5833C0 15.7601 0.070238 15.9297 0.195262 16.0547C0.320287 16.1798 0.489856 16.25 0.666667 16.25H4C4.17681 16.25 4.34638 16.1798 4.4714 16.0547C4.59643 15.9297 4.66667 15.7601 4.66667 15.5833C4.66667 15.4065 4.59643 15.237 4.4714 15.1119C4.34638 14.9869 4.17681 14.9167 4 14.9167ZM15.3333 11.5833C15.1565 11.5833 14.987 11.6536 14.8619 11.7786C14.7369 11.9036 14.6667 12.0732 14.6667 12.25V14.9167H12C11.8232 14.9167 11.6536 14.9869 11.5286 15.1119C11.4036 15.237 11.3333 15.4065 11.3333 15.5833C11.3333 15.7601 11.4036 15.9297 11.5286 16.0547C11.6536 16.1798 11.8232 16.25 12 16.25H15.3333C15.5101 16.25 15.6797 16.1798 15.8047 16.0547C15.9298 15.9297 16 15.7601 16 15.5833V12.25C16 12.0732 15.9298 11.9036 15.8047 11.7786C15.6797 11.6536 15.5101 11.5833 15.3333 11.5833ZM0.666667 4.91667C0.843478 4.91667 1.01305 4.84643 1.13807 4.7214C1.2631 4.59638 1.33333 4.42681 1.33333 4.25V1.58333H4C4.17681 1.58333 4.34638 1.5131 4.4714 1.38807C4.59643 1.26305 4.66667 1.09348 4.66667 0.916667C4.66667 0.739856 4.59643 0.570287 4.4714 0.445262C4.34638 0.320238 4.17681 0.25 4 0.25H0.666667C0.489856 0.25 0.320287 0.320238 0.195262 0.445262C0.070238 0.570287 0 0.739856 0 0.916667V4.25C0 4.42681 0.070238 4.59638 0.195262 4.7214C0.320287 4.84643 0.489856 4.91667 0.666667 4.91667ZM4 3.58333H12C12.1768 3.58333 12.3464 3.65357 12.4714 3.7786C12.5964 3.90362 12.6667 4.07319 12.6667 4.25V12.25C12.6667 12.4268 12.5964 12.5964 12.4714 12.7214C12.3464 12.8464 12.1768 12.9167 12 12.9167H4C3.82319 12.9167 3.65362 12.8464 3.5286 12.7214C3.40357 12.5964 3.33333 12.4268 3.33333 12.25V4.25C3.33333 4.07319 3.40357 3.90362 3.5286 3.7786C3.65362 3.65357 3.82319 3.58333 4 3.58333ZM4.66667 11.5833H11.3333V4.91667H4.66667V11.5833Z" fill="white"/>
</svg>
