<svg width="12" height="8" viewBox="0 0 12 8" fill="none" xmlns="http://www.w3.org/2000/svg">
<path d="M0.93162 7.36258C0.880945 7.41325 0.820783 7.45345 0.754573 7.48088C0.688361 7.5083 0.617396 7.52242 0.54573 7.52242C0.474064 7.52242 0.403099 7.5083 0.336888 7.48088C0.270677 7.45345 0.210516 7.41325 0.15984 7.36258C0.109164 7.3119 0.0689666 7.25174 0.0415418 7.18553C0.014116 7.11932 -2.65406e-07 7.04835 -2.62274e-07 6.97669C-2.59141e-07 6.90502 0.014116 6.83406 0.0415418 6.76785C0.0689666 6.70163 0.109164 6.64147 0.15984 6.5908L5.61411 1.13653C5.66477 1.08582 5.72492 1.04559 5.79113 1.01814C5.85735 0.99069 5.92832 0.976562 6 0.976562C6.07168 0.976562 6.14265 0.99069 6.20887 1.01814C6.27508 1.04559 6.33523 1.08582 6.38589 1.13653L11.8402 6.5908C11.9425 6.69314 12 6.83195 12 6.97669C12 7.12142 11.9425 7.26023 11.8402 7.36258C11.7378 7.46492 11.599 7.52242 11.4543 7.52242C11.3095 7.52242 11.1707 7.46492 11.0684 7.36258L6 2.29352L0.93162 7.36258Z" fill="white"/>
</svg>
