<svg width="12" height="15" viewBox="0 0 12 15" fill="none" xmlns="http://www.w3.org/2000/svg">
<path d="M11.6887 4.17673L7.91942 0.4075C7.86938 0.357512 7.80998 0.317874 7.74461 0.29085C7.67925 0.263825 7.60919 0.249945 7.53846 0.25H1.07692C0.791305 0.25 0.517386 0.363461 0.315423 0.565424C0.113461 0.767386 0 1.04131 0 1.32692V13.1731C0 13.4587 0.113461 13.7326 0.315423 13.9346C0.517386 14.1365 0.791305 14.25 1.07692 14.25H10.7692C11.0548 14.25 11.3288 14.1365 11.5307 13.9346C11.7327 13.7326 11.8462 13.4587 11.8462 13.1731V4.55769C11.8462 4.48696 11.8323 4.41691 11.8053 4.35154C11.7783 4.28618 11.7386 4.22677 11.6887 4.17673ZM8.07692 2.08817L10.008 4.01923H8.07692V2.08817ZM10.7692 13.1731H1.07692V1.32692H7V4.55769C7 4.7005 7.05673 4.83746 7.15771 4.93844C7.25869 5.03942 7.39565 5.09615 7.53846 5.09615H10.7692V13.1731ZM8.07692 8.86539C8.07692 9.00819 8.02019 9.14515 7.91921 9.24614C7.81823 9.34712 7.68127 9.40385 7.53846 9.40385H6.46154V10.4808C6.46154 10.6236 6.40481 10.7605 6.30383 10.8615C6.20285 10.9625 6.06589 11.0192 5.92308 11.0192C5.78027 11.0192 5.64331 10.9625 5.54233 10.8615C5.44135 10.7605 5.38462 10.6236 5.38462 10.4808V9.40385H4.30769C4.16488 9.40385 4.02792 9.34712 3.92694 9.24614C3.82596 9.14515 3.76923 9.00819 3.76923 8.86539C3.76923 8.72258 3.82596 8.58562 3.92694 8.48463C4.02792 8.38365 4.16488 8.32692 4.30769 8.32692H5.38462V7.25C5.38462 7.10719 5.44135 6.97023 5.54233 6.86925C5.64331 6.76827 5.78027 6.71154 5.92308 6.71154C6.06589 6.71154 6.20285 6.76827 6.30383 6.86925C6.40481 6.97023 6.46154 7.10719 6.46154 7.25V8.32692H7.53846C7.68127 8.32692 7.81823 8.38365 7.91921 8.48463C8.02019 8.58562 8.07692 8.72258 8.07692 8.86539Z" fill="white"/>
</svg>
