<svg width="15" height="14" viewBox="0 0 15 14" fill="none" xmlns="http://www.w3.org/2000/svg">
<path d="M8.66667 13.4167C8.66667 13.5714 8.72812 13.7197 8.83752 13.8291C8.94692 13.9385 9.09529 14 9.25 14H13.9167C14.0714 14 14.2197 13.9385 14.3291 13.8291C14.4385 13.7197 14.5 13.5714 14.5 13.4167V0.583333C14.5 0.428624 14.4385 0.280251 14.3291 0.170854C14.2197 0.0614583 14.0714 0 13.9167 0H9.25C9.09529 0 8.94692 0.0614583 8.83752 0.170854C8.72812 0.280251 8.66667 0.428624 8.66667 0.583333C8.66667 0.738043 8.72812 0.886416 8.83752 0.995812C8.94692 1.10521 9.09529 1.16667 9.25 1.16667H13.3333V12.8333H9.25C9.09529 12.8333 8.94692 12.8948 8.83752 13.0042C8.72812 13.1136 8.66667 13.262 8.66667 13.4167ZM0.670624 6.58729L3.58729 3.67062C3.69675 3.56117 3.8452 3.49968 4 3.49968C4.15479 3.49968 4.30325 3.56117 4.41271 3.67062C4.52217 3.78008 4.58366 3.92854 4.58366 4.08333C4.58366 4.23813 4.52217 4.38658 4.41271 4.49604L2.49135 6.41667H9.25C9.40471 6.41667 9.55308 6.47812 9.66248 6.58752C9.77187 6.69692 9.83333 6.84529 9.83333 7C9.83333 7.15471 9.77187 7.30308 9.66248 7.41248C9.55308 7.52188 9.40471 7.58333 9.25 7.58333H2.49135L4.41271 9.50396C4.52217 9.61341 4.58366 9.76187 4.58366 9.91667C4.58366 10.0715 4.52217 10.2199 4.41271 10.3294C4.30325 10.4388 4.15479 10.5003 4 10.5003C3.8452 10.5003 3.69675 10.4388 3.58729 10.3294L0.670624 7.41271C0.616387 7.35853 0.573361 7.2942 0.544005 7.22338C0.514649 7.15257 0.49954 7.07666 0.49954 7C0.49954 6.92334 0.514649 6.84743 0.544005 6.77662C0.573361 6.7058 0.616387 6.64147 0.670624 6.58729Z" fill="white"/>
</svg>
