<svg width="16" height="13" viewBox="0 0 16 13" fill="none" xmlns="http://www.w3.org/2000/svg">
<path d="M3.78947 1.19737C3.78947 1.02986 3.85601 0.869219 3.97446 0.750775C4.0929 0.632331 4.25355 0.565789 4.42105 0.565789H14.5263C14.6938 0.565789 14.8545 0.632331 14.9729 0.750775C15.0914 0.869219 15.1579 1.02986 15.1579 1.19737C15.1579 1.36487 15.0914 1.52552 14.9729 1.64396C14.8545 1.76241 14.6938 1.82895 14.5263 1.82895H4.42105C4.25355 1.82895 4.0929 1.76241 3.97446 1.64396C3.85601 1.52552 3.78947 1.36487 3.78947 1.19737ZM14.5263 5.61842H4.42105C4.25355 5.61842 4.0929 5.68496 3.97446 5.80341C3.85601 5.92185 3.78947 6.08249 3.78947 6.25C3.78947 6.4175 3.85601 6.57815 3.97446 6.69659C4.0929 6.81504 4.25355 6.88158 4.42105 6.88158H14.5263C14.6938 6.88158 14.8545 6.81504 14.9729 6.69659C15.0914 6.57815 15.1579 6.4175 15.1579 6.25C15.1579 6.08249 15.0914 5.92185 14.9729 5.80341C14.8545 5.68496 14.6938 5.61842 14.5263 5.61842ZM14.5263 10.6711H4.42105C4.25355 10.6711 4.0929 10.7376 3.97446 10.856C3.85601 10.9745 3.78947 11.1351 3.78947 11.3026C3.78947 11.4701 3.85601 11.6308 3.97446 11.7492C4.0929 11.8677 4.25355 11.9342 4.42105 11.9342H14.5263C14.6938 11.9342 14.8545 11.8677 14.9729 11.7492C15.0914 11.6308 15.1579 11.4701 15.1579 11.3026C15.1579 11.1351 15.0914 10.9745 14.9729 10.856C14.8545 10.7376 14.6938 10.6711 14.5263 10.6711ZM0.947369 0.25C0.759997 0.25 0.576833 0.305562 0.421039 0.40966C0.265245 0.513759 0.143819 0.661717 0.0721145 0.834826C0.000410481 1.00794 -0.0183506 1.19842 0.0182038 1.38219C0.0547583 1.56596 0.144986 1.73477 0.277478 1.86726C0.40997 1.99975 0.578775 2.08998 0.762546 2.12653C0.946318 2.16309 1.1368 2.14433 1.30991 2.07262C1.48302 2.00092 1.63098 1.87949 1.73508 1.7237C1.83917 1.5679 1.89474 1.38474 1.89474 1.19737C1.89474 0.946111 1.79493 0.705144 1.61726 0.527478C1.43959 0.349812 1.19863 0.25 0.947369 0.25ZM0.947369 5.30263C0.759997 5.30263 0.576833 5.35819 0.421039 5.46229C0.265245 5.56639 0.143819 5.71435 0.0721145 5.88746C0.000410481 6.06057 -0.0183506 6.25105 0.0182038 6.43482C0.0547583 6.61859 0.144986 6.7874 0.277478 6.91989C0.40997 7.05238 0.578775 7.14261 0.762546 7.17916C0.946318 7.21572 1.1368 7.19696 1.30991 7.12525C1.48302 7.05355 1.63098 6.93212 1.73508 6.77633C1.83917 6.62054 1.89474 6.43737 1.89474 6.25C1.89474 5.99874 1.79493 5.75778 1.61726 5.58011C1.43959 5.40244 1.19863 5.30263 0.947369 5.30263ZM0.947369 10.3553C0.759997 10.3553 0.576833 10.4108 0.421039 10.5149C0.265245 10.619 0.143819 10.767 0.0721145 10.9401C0.000410481 11.1132 -0.0183506 11.3037 0.0182038 11.4875C0.0547583 11.6712 0.144986 11.84 0.277478 11.9725C0.40997 12.105 0.578775 12.1952 0.762546 12.2318C0.946318 12.2684 1.1368 12.2496 1.30991 12.1779C1.48302 12.1062 1.63098 11.9848 1.73508 11.829C1.83917 11.6732 1.89474 11.49 1.89474 11.3026C1.89474 11.0514 1.79493 10.8104 1.61726 10.6327C1.43959 10.4551 1.19863 10.3553 0.947369 10.3553Z" fill="white"/>
</svg>
