<svg width="19" height="17" viewBox="0 0 19 17" fill="none" xmlns="http://www.w3.org/2000/svg">
<path d="M16 6.79545C16 6.98834 15.9234 7.17332 15.787 7.30971C15.6506 7.4461 15.4656 7.52273 15.2727 7.52273H11.6364C11.4435 7.52273 11.2585 7.4461 11.1221 7.30971C10.9857 7.17332 10.9091 6.98834 10.9091 6.79545C10.9091 6.60257 10.9857 6.41759 11.1221 6.2812C11.2585 6.14481 11.4435 6.06818 11.6364 6.06818H15.2727C15.4656 6.06818 15.6506 6.14481 15.787 6.2812C15.9234 6.41759 16 6.60257 16 6.79545ZM15.2727 8.97727H11.6364C11.4435 8.97727 11.2585 9.0539 11.1221 9.19029C10.9857 9.32668 10.9091 9.51166 10.9091 9.70455C10.9091 9.89743 10.9857 10.0824 11.1221 10.2188C11.2585 10.3552 11.4435 10.4318 11.6364 10.4318H15.2727C15.4656 10.4318 15.6506 10.3552 15.787 10.2188C15.9234 10.0824 16 9.89743 16 9.70455C16 9.51166 15.9234 9.32668 15.787 9.19029C15.6506 9.0539 15.4656 8.97727 15.2727 8.97727ZM18.9091 1.70455V14.7955C18.9091 15.1812 18.7558 15.5512 18.4831 15.824C18.2103 16.0968 17.8403 16.25 17.4545 16.25H1.45455C1.06878 16.25 0.698807 16.0968 0.426026 15.824C0.153246 15.5512 0 15.1812 0 14.7955V1.70455C0 1.31878 0.153246 0.948807 0.426026 0.676026C0.698807 0.403246 1.06878 0.25 1.45455 0.25H17.4545C17.8403 0.25 18.2103 0.403246 18.4831 0.676026C18.7558 0.948807 18.9091 1.31878 18.9091 1.70455ZM17.4545 14.7955V1.70455H1.45455V14.7955H17.4545ZM10.1582 11.7045C10.2064 11.8914 10.1784 12.0898 10.0804 12.256C9.98236 12.4222 9.82231 12.5427 9.63546 12.5909C9.4486 12.6391 9.25024 12.6111 9.08401 12.5131C8.91779 12.4151 8.79731 12.255 8.74909 12.0682C8.51 11.1355 7.56182 10.4318 6.54455 10.4318C5.52727 10.4318 4.58 11.1355 4.34 12.0682C4.29178 12.255 4.1713 12.4151 4.00508 12.5131C3.83885 12.6111 3.64049 12.6391 3.45364 12.5909C3.26678 12.5427 3.10673 12.4222 3.0087 12.256C2.91067 12.0898 2.88269 11.8914 2.93091 11.7045C3.16691 10.8261 3.72478 10.0687 4.49364 9.58273C4.08506 9.17658 3.80628 8.65826 3.69263 8.09348C3.57897 7.5287 3.63557 6.94289 3.85524 6.41032C4.07491 5.87774 4.44777 5.42238 4.92654 5.10196C5.40532 4.78154 5.96844 4.61049 6.54455 4.61049C7.12065 4.61049 7.68378 4.78154 8.16255 5.10196C8.64132 5.42238 9.01418 5.87774 9.23385 6.41032C9.45352 6.94289 9.51012 7.5287 9.39647 8.09348C9.28281 8.65826 9.00403 9.17658 8.59546 9.58273C9.36515 10.068 9.92352 10.8257 10.1591 11.7045H10.1582ZM6.54545 8.97727C6.83314 8.97727 7.11436 8.89196 7.35356 8.73214C7.59276 8.57231 7.77919 8.34514 7.88928 8.07936C7.99937 7.81357 8.02818 7.52111 7.97205 7.23896C7.91593 6.95681 7.7774 6.69763 7.57397 6.49421C7.37055 6.29079 7.11138 6.15225 6.82922 6.09613C6.54707 6.04001 6.25461 6.06881 5.98882 6.1789C5.72304 6.28899 5.49587 6.47543 5.33604 6.71463C5.17622 6.95382 5.09091 7.23505 5.09091 7.52273C5.09091 7.9085 5.24416 8.27847 5.51694 8.55125C5.78972 8.82403 6.15969 8.97727 6.54545 8.97727Z" fill="white"/>
</svg>
