<svg width="14" height="15" viewBox="0 0 14 15" fill="none" xmlns="http://www.w3.org/2000/svg">
<path d="M5.09091 0.25H1.27273C0.935179 0.25 0.611456 0.38409 0.372773 0.622773C0.13409 0.861456 0 1.18518 0 1.52273V5.34091C0 5.67846 0.13409 6.00218 0.372773 6.24086C0.611456 6.47955 0.935179 6.61364 1.27273 6.61364H5.09091C5.42846 6.61364 5.75218 6.47955 5.99086 6.24086C6.22955 6.00218 6.36364 5.67846 6.36364 5.34091V1.52273C6.36364 1.18518 6.22955 0.861456 5.99086 0.622773C5.75218 0.38409 5.42846 0.25 5.09091 0.25ZM5.09091 5.34091H1.27273V1.52273H5.09091V5.34091ZM5.09091 7.88636H1.27273C0.935179 7.88636 0.611456 8.02045 0.372773 8.25914C0.13409 8.49782 0 8.82154 0 9.15909V12.9773C0 13.3148 0.13409 13.6385 0.372773 13.8772C0.611456 14.1159 0.935179 14.25 1.27273 14.25H5.09091C5.42846 14.25 5.75218 14.1159 5.99086 13.8772C6.22955 13.6385 6.36364 13.3148 6.36364 12.9773V9.15909C6.36364 8.82154 6.22955 8.49782 5.99086 8.25914C5.75218 8.02045 5.42846 7.88636 5.09091 7.88636ZM5.09091 12.9773H1.27273V9.15909H5.09091V12.9773ZM12.7273 0.25H8.90909C8.57154 0.25 8.24782 0.38409 8.00914 0.622773C7.77045 0.861456 7.63636 1.18518 7.63636 1.52273V5.34091C7.63636 5.67846 7.77045 6.00218 8.00914 6.24086C8.24782 6.47955 8.57154 6.61364 8.90909 6.61364H12.7273C13.0648 6.61364 13.3885 6.47955 13.6272 6.24086C13.8659 6.00218 14 5.67846 14 5.34091V1.52273C14 1.18518 13.8659 0.861456 13.6272 0.622773C13.3885 0.38409 13.0648 0.25 12.7273 0.25ZM12.7273 5.34091H8.90909V1.52273H12.7273V5.34091ZM7.63636 11.0682V8.52273C7.63636 8.35395 7.70341 8.19209 7.82275 8.07275C7.94209 7.95341 8.10395 7.88636 8.27273 7.88636C8.4415 7.88636 8.60336 7.95341 8.7227 8.07275C8.84205 8.19209 8.90909 8.35395 8.90909 8.52273V11.0682C8.90909 11.237 8.84205 11.3988 8.7227 11.5182C8.60336 11.6375 8.4415 11.7045 8.27273 11.7045C8.10395 11.7045 7.94209 11.6375 7.82275 11.5182C7.70341 11.3988 7.63636 11.237 7.63636 11.0682ZM14 9.79545C14 9.96423 13.933 10.1261 13.8136 10.2454C13.6943 10.3648 13.5324 10.4318 13.3636 10.4318H11.4545V13.6136C11.4545 13.7824 11.3875 13.9443 11.2682 14.0636C11.1488 14.183 10.987 14.25 10.8182 14.25H8.27273C8.10395 14.25 7.94209 14.183 7.82275 14.0636C7.70341 13.9443 7.63636 13.7824 7.63636 13.6136C7.63636 13.4449 7.70341 13.283 7.82275 13.1637C7.94209 13.0443 8.10395 12.9773 8.27273 12.9773H10.1818V8.52273C10.1818 8.35395 10.2489 8.19209 10.3682 8.07275C10.4875 7.95341 10.6494 7.88636 10.8182 7.88636C10.987 7.88636 11.1488 7.95341 11.2682 8.07275C11.3875 8.19209 11.4545 8.35395 11.4545 8.52273V9.15909H13.3636C13.5324 9.15909 13.6943 9.22614 13.8136 9.34548C13.933 9.46482 14 9.62668 14 9.79545ZM14 12.3409V13.6136C14 13.7824 13.933 13.9443 13.8136 14.0636C13.6943 14.183 13.5324 14.25 13.3636 14.25C13.1949 14.25 13.033 14.183 12.9137 14.0636C12.7943 13.9443 12.7273 13.7824 12.7273 13.6136V12.3409C12.7273 12.1721 12.7943 12.0103 12.9137 11.8909C13.033 11.7716 13.1949 11.7045 13.3636 11.7045C13.5324 11.7045 13.6943 11.7716 13.8136 11.8909C13.933 12.0103 14 12.1721 14 12.3409Z" fill="white"/>
</svg>
