<svg width="20" height="14" viewBox="0 0 20 14" fill="none" xmlns="http://www.w3.org/2000/svg">
<path d="M19.9517 5.08333L18.785 2.16667C18.686 1.91989 18.5152 1.70852 18.2947 1.55994C18.0742 1.41136 17.8142 1.33242 17.5483 1.33333H14.6667V0.666667C14.6667 0.489856 14.5964 0.320286 14.4714 0.195262C14.3464 0.070238 14.1768 0 14 0H1.33333C0.979711 0 0.640573 0.140476 0.390524 0.390524C0.140476 0.640573 0 0.979711 0 1.33333V10.6667C0 11.0203 0.140476 11.3594 0.390524 11.6095C0.640573 11.8595 0.979711 12 1.33333 12H2.75C2.89687 12.5736 3.23047 13.082 3.69821 13.4451C4.16595 13.8082 4.74122 14.0052 5.33333 14.0052C5.92545 14.0052 6.50072 13.8082 6.96846 13.4451C7.4362 13.082 7.7698 12.5736 7.91667 12H12.0833C12.2302 12.5736 12.5638 13.082 13.0315 13.4451C13.4993 13.8082 14.0746 14.0052 14.6667 14.0052C15.2588 14.0052 15.8341 13.8082 16.3018 13.4451C16.7695 13.082 17.1031 12.5736 17.25 12H18.6667C19.0203 12 19.3594 11.8595 19.6095 11.6095C19.8595 11.3594 20 11.0203 20 10.6667V5.33333C20.0002 5.24766 19.9838 5.16275 19.9517 5.08333ZM14.6667 2.66667H17.5483L18.3483 4.66667H14.6667V2.66667ZM1.33333 1.33333H13.3333V6.66667H1.33333V1.33333ZM5.33333 12.6667C5.06962 12.6667 4.81184 12.5885 4.59257 12.442C4.37331 12.2954 4.20241 12.0872 4.10149 11.8436C4.00058 11.5999 3.97417 11.3319 4.02562 11.0732C4.07707 10.8146 4.20405 10.577 4.39052 10.3905C4.57699 10.2041 4.81457 10.0771 5.07321 10.0256C5.33185 9.97417 5.59994 10.0006 5.84358 10.1015C6.08721 10.2024 6.29545 10.3733 6.44196 10.5926C6.58847 10.8118 6.66667 11.0696 6.66667 11.3333C6.66667 11.687 6.52619 12.0261 6.27614 12.2761C6.02609 12.5262 5.68695 12.6667 5.33333 12.6667ZM12.0833 10.6667H7.91667C7.7698 10.0931 7.4362 9.58464 6.96846 9.22157C6.50072 8.85851 5.92545 8.66144 5.33333 8.66144C4.74122 8.66144 4.16595 8.85851 3.69821 9.22157C3.23047 9.58464 2.89687 10.0931 2.75 10.6667H1.33333V8H13.3333V9.02583C13.0268 9.20303 12.7584 9.4393 12.5439 9.72096C12.3293 10.0026 12.1728 10.3241 12.0833 10.6667ZM14.6667 12.6667C14.403 12.6667 14.1452 12.5885 13.9259 12.442C13.7066 12.2954 13.5357 12.0872 13.4348 11.8436C13.3339 11.5999 13.3075 11.3319 13.359 11.0732C13.4104 10.8146 13.5374 10.577 13.7239 10.3905C13.9103 10.2041 14.1479 10.0771 14.4065 10.0256C14.6652 9.97417 14.9333 10.0006 15.1769 10.1015C15.4205 10.2024 15.6288 10.3733 15.7753 10.5926C15.9218 10.8118 16 11.0696 16 11.3333C16 11.687 15.8595 12.0261 15.6095 12.2761C15.3594 12.5262 15.0203 12.6667 14.6667 12.6667ZM18.6667 10.6667H17.25C17.1014 10.0945 16.7671 9.5877 16.2997 9.22578C15.8322 8.86386 15.2579 8.66722 14.6667 8.66667V6H18.6667V10.6667Z" fill="#3F4660"/>
</svg>
