<svg width="20" height="22" viewBox="0 0 20 22" fill="none" xmlns="http://www.w3.org/2000/svg">
<path d="M20 14.4755C20 14.7062 19.9084 14.9273 19.7453 15.0904C19.5822 15.2535 19.3611 15.3451 19.1304 15.3451H16.5217V17.0842H18.2609C18.4915 17.0842 18.7127 17.1759 18.8757 17.3389C19.0388 17.502 19.1304 17.7232 19.1304 17.9538C19.1304 18.1844 19.0388 18.4056 18.8757 18.5687C18.7127 18.7318 18.4915 18.8234 18.2609 18.8234H16.5217V20.5625C16.5217 20.7931 16.4301 21.0143 16.267 21.1774C16.104 21.3405 15.8828 21.4321 15.6522 21.4321C15.4216 21.4321 15.2004 21.3405 15.0373 21.1774C14.8742 21.0143 14.7826 20.7931 14.7826 20.5625V14.4755C14.7826 14.2449 14.8742 14.0237 15.0373 13.8607C15.2004 13.6976 15.4216 13.606 15.6522 13.606H19.1304C19.3611 13.606 19.5822 13.6976 19.7453 13.8607C19.9084 14.0237 20 14.2449 20 14.4755ZM5.65217 16.6495C5.65217 17.4566 5.33152 18.2308 4.76076 18.8015C4.19 19.3723 3.41588 19.6929 2.6087 19.6929H1.73913V20.5625C1.73913 20.7931 1.64752 21.0143 1.48444 21.1774C1.32137 21.3405 1.10019 21.4321 0.869565 21.4321C0.638942 21.4321 0.417765 21.3405 0.25469 21.1774C0.0916148 21.0143 0 20.7931 0 20.5625V14.4755C0 14.2449 0.0916148 14.0237 0.25469 13.8607C0.417765 13.6976 0.638942 13.606 0.869565 13.606H2.6087C3.41588 13.606 4.19 13.9266 4.76076 14.4974C5.33152 15.0682 5.65217 15.8423 5.65217 16.6495ZM3.91304 16.6495C3.91304 16.3035 3.77562 15.9718 3.53101 15.7271C3.2864 15.4825 2.95463 15.3451 2.6087 15.3451H1.73913V17.9538H2.6087C2.95463 17.9538 3.2864 17.8164 3.53101 17.5718C3.77562 17.3272 3.91304 16.9954 3.91304 16.6495ZM13.4783 17.519C13.4783 18.5568 13.066 19.5521 12.3322 20.286C11.5983 21.0198 10.603 21.4321 9.56522 21.4321H7.82609C7.59546 21.4321 7.37429 21.3405 7.21121 21.1774C7.04814 21.0143 6.95652 20.7931 6.95652 20.5625V14.4755C6.95652 14.2449 7.04814 14.0237 7.21121 13.8607C7.37429 13.6976 7.59546 13.606 7.82609 13.606H9.56522C10.603 13.606 11.5983 14.0182 12.3322 14.7521C13.066 15.4859 13.4783 16.4812 13.4783 17.519ZM11.7391 17.519C11.7391 16.9425 11.5101 16.3895 11.1024 15.9818C10.6947 15.5741 10.1418 15.3451 9.56522 15.3451H8.69565V19.6929H9.56522C10.1418 19.6929 10.6947 19.4639 11.1024 19.0562C11.5101 18.6485 11.7391 18.0956 11.7391 17.519ZM0 10.1277V2.30163C0 1.84038 0.183229 1.39803 0.509379 1.07188C0.83553 0.745729 1.27788 0.5625 1.73913 0.5625H12.1739C12.2881 0.56241 12.4013 0.584827 12.5068 0.628469C12.6124 0.67211 12.7083 0.736123 12.7891 0.816848L18.8761 6.9038C18.9568 6.98462 19.0208 7.08055 19.0645 7.18611C19.1081 7.29167 19.1305 7.4048 19.1304 7.51902V10.1277C19.1304 10.3583 19.0388 10.5795 18.8757 10.7426C18.7127 10.9057 18.4915 10.9973 18.2609 10.9973C18.0302 10.9973 17.8091 10.9057 17.646 10.7426C17.4829 10.5795 17.3913 10.3583 17.3913 10.1277V8.38859H12.1739C11.9433 8.38859 11.7221 8.29697 11.559 8.1339C11.396 7.97082 11.3043 7.74965 11.3043 7.51902V2.30163H1.73913V10.1277C1.73913 10.3583 1.64752 10.5795 1.48444 10.7426C1.32137 10.9057 1.10019 10.9973 0.869565 10.9973C0.638942 10.9973 0.417765 10.9057 0.25469 10.7426C0.0916148 10.5795 0 10.3583 0 10.1277ZM13.0435 6.64946H16.162L13.0435 3.53098V6.64946Z" fill="#3F4660"/>
</svg>
