<svg width="20" height="20" viewBox="0 0 20 20" fill="none" xmlns="http://www.w3.org/2000/svg">
<path d="M8.84615 8.45793C8.84615 8.22972 8.91383 8.00664 9.04061 7.81689C9.1674 7.62714 9.3476 7.47925 9.55844 7.39192C9.76928 7.30459 10.0013 7.28174 10.2251 7.32626C10.4489 7.37078 10.6545 7.48067 10.8159 7.64204C10.9773 7.80341 11.0872 8.009 11.1317 8.23283C11.1762 8.45665 11.1533 8.68865 11.066 8.89949C10.9787 9.11033 10.8308 9.29053 10.641 9.41732C10.4513 9.54411 10.2282 9.61178 10 9.61178C9.69398 9.61178 9.4005 9.49021 9.18411 9.27382C8.96772 9.05744 8.84615 8.76395 8.84615 8.45793ZM5.76923 9.61178C5.99744 9.61178 6.22052 9.54411 6.41027 9.41732C6.60002 9.29053 6.74791 9.11033 6.83525 8.89949C6.92258 8.68865 6.94543 8.45665 6.90091 8.23283C6.85638 8.009 6.74649 7.80341 6.58512 7.64204C6.42376 7.48067 6.21816 7.37078 5.99434 7.32626C5.77051 7.28174 5.53851 7.30459 5.32767 7.39192C5.11684 7.47925 4.93663 7.62714 4.80984 7.81689C4.68306 8.00664 4.61538 8.22972 4.61538 8.45793C4.61538 8.76395 4.73695 9.05744 4.95334 9.27382C5.16973 9.49021 5.46321 9.61178 5.76923 9.61178ZM14.2308 9.61178C14.459 9.61178 14.6821 9.54411 14.8718 9.41732C15.0616 9.29053 15.2095 9.11033 15.2968 8.89949C15.3841 8.68865 15.407 8.45665 15.3624 8.23283C15.3179 8.009 15.208 7.80341 15.0467 7.64204C14.8853 7.48067 14.6797 7.37078 14.4559 7.32626C14.232 7.28174 14.0001 7.30459 13.7892 7.39192C13.5784 7.47925 13.3982 7.62714 13.2714 7.81689C13.1446 8.00664 13.0769 8.22972 13.0769 8.45793C13.0769 8.76395 13.1985 9.05744 13.4149 9.27382C13.6313 9.49021 13.9248 9.61178 14.2308 9.61178ZM20 2.30409V14.6118C20 15.0198 19.8379 15.4111 19.5494 15.6996C19.2609 15.9882 18.8696 16.1502 18.4615 16.1502H12.651L11.3356 18.4522C11.201 18.6876 11.0066 18.8832 10.772 19.0193C10.5375 19.1553 10.2712 19.227 10 19.227C9.72884 19.227 9.46251 19.1553 9.22796 19.0193C8.99342 18.8832 8.79901 18.6876 8.66442 18.4522L7.34904 16.1502H1.53846C1.13044 16.1502 0.739122 15.9882 0.450605 15.6996C0.162087 15.4111 0 15.0198 0 14.6118V2.30409C0 1.89606 0.162087 1.50475 0.450605 1.21623C0.739122 0.927712 1.13044 0.765625 1.53846 0.765625H18.4615C18.8696 0.765625 19.2609 0.927712 19.5494 1.21623C19.8379 1.50475 20 1.89606 20 2.30409ZM18.4615 2.30409H1.53846V14.6118H7.79519C7.93139 14.6106 8.06547 14.6455 8.18372 14.7131C8.30198 14.7807 8.40017 14.8784 8.46827 14.9964L10.0067 17.6887L11.5452 14.9964C11.6133 14.8784 11.7115 14.7807 11.8297 14.7131C11.948 14.6455 12.0821 14.6106 12.2183 14.6118H18.4615V2.30409Z" fill="#3F4660"/>
</svg>
