<svg width="30" height="17" viewBox="0 0 30 17" fill="none" xmlns="http://www.w3.org/2000/svg">
<rect x="0.5" y="1" width="29" height="15" rx="1.5" stroke="#4F587E"/>
<path d="M2 3.5L28 3.5" stroke="#4F587E" stroke-width="0.5" stroke-linecap="round"/>
<path d="M3.384 10.084L3.072 11.5H2.36L3.712 5.9H4.632L5.96 11.5H5.248L4.944 10.084H3.384ZM4.816 9.484L4.16 6.428L3.512 9.484H4.816ZM9.96031 10.236C9.96031 10.6947 9.85365 11.02 9.64031 11.212C9.43231 11.404 9.08565 11.5 8.60031 11.5H7.00031V5.9H8.50431C8.97898 5.9 9.32565 5.996 9.54431 6.188C9.76831 6.38 9.88031 6.7 9.88031 7.148V7.604C9.88031 8.01467 9.73365 8.324 9.44031 8.532C9.78698 8.724 9.96031 9.052 9.96031 9.516V10.236ZM9.18431 7.076C9.18431 6.87333 9.13631 6.72667 9.04031 6.636C8.94965 6.54533 8.80298 6.5 8.60031 6.5H7.69631V8.268H8.60031C8.76565 8.268 8.90431 8.21467 9.01631 8.108C9.12831 8.00133 9.18431 7.86 9.18431 7.684V7.076ZM9.26431 9.444C9.26431 9.268 9.21098 9.12933 9.10431 9.028C8.99765 8.92133 8.85631 8.868 8.68031 8.868H7.69631V10.9H8.67231C8.87498 10.9 9.02431 10.8547 9.12031 10.764C9.21631 10.668 9.26431 10.5187 9.26431 10.316V9.444ZM12.9526 11.5C12.4886 11.5 12.1313 11.388 11.8806 11.164C11.6353 10.9347 11.5126 10.5933 11.5126 10.14V7.26C11.5126 6.80667 11.6353 6.468 11.8806 6.244C12.1313 6.01467 12.4886 5.9 12.9526 5.9H14.0886V6.508H12.8726C12.6753 6.508 12.5153 6.56667 12.3926 6.684C12.27 6.80133 12.2086 6.94267 12.2086 7.108V10.292C12.2086 10.4573 12.27 10.5987 12.3926 10.716C12.5153 10.8333 12.6753 10.892 12.8726 10.892H14.0886V11.5H12.9526ZM16.9049 10.9V6.532L15.7769 6.948V6.3L16.8249 5.9H17.5849V10.9H18.4569V11.5H15.8569V10.9H16.9049ZM21.4013 8.972C21.5719 8.72667 21.6866 8.55333 21.7453 8.452C21.8093 8.34533 21.8519 8.23867 21.8733 8.132C21.8946 8.02533 21.9053 7.87067 21.9053 7.668V7.108C21.9053 6.94267 21.8439 6.80133 21.7213 6.684C21.5986 6.56667 21.4386 6.508 21.2413 6.508H20.2812V5.9H21.1613C21.6253 5.9 21.9799 6.01467 22.2253 6.244C22.4759 6.468 22.6013 6.80667 22.6013 7.26V7.596C22.6013 7.86267 22.5826 8.07867 22.5453 8.244C22.5079 8.40933 22.4546 8.556 22.3853 8.684C22.3159 8.812 22.2013 8.99067 22.0413 9.22L20.8573 10.892H22.7613V11.5H20.1213V10.796L21.4013 8.972ZM26.9536 10.236C26.9536 10.6787 26.8469 11.0013 26.6336 11.204C26.4202 11.4013 26.0736 11.5 25.5936 11.5H24.5696V10.9H25.6656C25.8682 10.9 26.0176 10.8547 26.1136 10.764C26.2096 10.668 26.2576 10.5187 26.2576 10.316V9.492C26.2576 9.316 26.2042 9.17733 26.0976 9.076C25.9909 8.96933 25.8496 8.916 25.6736 8.916H24.8176V8.316H25.5936C25.7589 8.316 25.8976 8.26267 26.0096 8.156C26.1216 8.04933 26.1776 7.908 26.1776 7.732V7.076C26.1776 6.87333 26.1296 6.72667 26.0336 6.636C25.9429 6.54533 25.7962 6.5 25.5936 6.5H24.5696V5.9H25.4976C25.9509 5.9 26.2922 6.00133 26.5216 6.204C26.7562 6.40133 26.8736 6.716 26.8736 7.148V7.652C26.8736 8.06267 26.7269 8.372 26.4336 8.58C26.7802 8.772 26.9536 9.1 26.9536 9.564V10.236Z" fill="#4F587E"/>
<path d="M2 13.5L28 13.5" stroke="#4F587E" stroke-width="0.5" stroke-linecap="round"/>
</svg>
