<svg width="19" height="13" viewBox="0 0 19 13" fill="none" xmlns="http://www.w3.org/2000/svg">
<path d="M18.3246 12.4141C18.2481 12.4572 18.1638 12.4848 18.0766 12.4953C17.9893 12.5057 17.9009 12.4988 17.8163 12.475C17.7318 12.4511 17.6528 12.4108 17.5839 12.3563C17.515 12.3018 17.4575 12.2342 17.4148 12.1575L11.6094 1.83304H9.99974V2.49957C9.99974 2.67634 9.92952 2.84587 9.80452 2.97087C9.67953 3.09587 9.50999 3.16609 9.33322 3.16609C9.15645 3.16609 8.98692 3.09587 8.86192 2.97087C8.73692 2.84587 8.6667 2.67634 8.6667 2.49957V1.83304H7.05705L1.25164 12.1575C1.16502 12.3122 1.0205 12.4261 0.849881 12.4742C0.679259 12.5223 0.496509 12.5007 0.341833 12.4141C0.187157 12.3275 0.0732251 12.183 0.0251011 12.0123C-0.0230228 11.8417 -0.00139674 11.659 0.0852219 11.5043L5.52738 1.83304H0.668429C0.491656 1.83304 0.322124 1.76282 0.197126 1.63782C0.0721293 1.51283 0.00190659 1.3433 0.00190659 1.16652C0.00190659 0.98975 0.0721293 0.820217 0.197126 0.69522C0.322124 0.570223 0.491656 0.5 0.668429 0.5H17.998C18.1748 0.5 18.3443 0.570223 18.4693 0.69522C18.5943 0.820217 18.6645 0.98975 18.6645 1.16652C18.6645 1.3433 18.5943 1.51283 18.4693 1.63782C18.3443 1.76282 18.1748 1.83304 17.998 1.83304H13.1391L18.5812 11.5043C18.6244 11.5808 18.652 11.6651 18.6624 11.7523C18.6729 11.8396 18.666 11.928 18.6421 12.0125C18.6183 12.0971 18.5779 12.1761 18.5234 12.245C18.469 12.3139 18.4014 12.3714 18.3246 12.4141ZM9.33322 5.16566C9.15645 5.16566 8.98692 5.23588 8.86192 5.36088C8.73692 5.48587 8.6667 5.65541 8.6667 5.83218V7.16522C8.6667 7.342 8.73692 7.51153 8.86192 7.63653C8.98692 7.76152 9.15645 7.83175 9.33322 7.83175C9.50999 7.83175 9.67953 7.76152 9.80452 7.63653C9.92952 7.51153 9.99974 7.342 9.99974 7.16522V5.83218C9.99974 5.65541 9.92952 5.48587 9.80452 5.36088C9.67953 5.23588 9.50999 5.16566 9.33322 5.16566ZM9.33322 9.83131C9.15645 9.83131 8.98692 9.90154 8.86192 10.0265C8.73692 10.1515 8.6667 10.3211 8.6667 10.4978V11.8309C8.6667 12.0077 8.73692 12.1772 8.86192 12.3022C8.98692 12.4272 9.15645 12.4974 9.33322 12.4974C9.50999 12.4974 9.67953 12.4272 9.80452 12.3022C9.92952 12.1772 9.99974 12.0077 9.99974 11.8309V10.4978C9.99974 10.3211 9.92952 10.1515 9.80452 10.0265C9.67953 9.90154 9.50999 9.83131 9.33322 9.83131Z" fill="black"/>
</svg>
