<svg width="18" height="15" viewBox="0 0 18 15" fill="none" xmlns="http://www.w3.org/2000/svg">
<path d="M16.9167 13.3333H16.3333V4.58333C16.3333 4.42862 16.2719 4.28025 16.1625 4.17085C16.0531 4.06146 15.9047 4 15.75 4H11.0833C10.9286 4 10.7802 4.06146 10.6709 4.17085C10.5615 4.28025 10.5 4.42862 10.5 4.58333V7.5H7V1.08333C7 0.928624 6.93854 0.780251 6.82915 0.670854C6.71975 0.561458 6.57138 0.5 6.41667 0.5H1.75C1.59529 0.5 1.44692 0.561458 1.33752 0.670854C1.22812 0.780251 1.16667 0.928624 1.16667 1.08333V13.3333H0.583333C0.428624 13.3333 0.280251 13.3948 0.170854 13.5042C0.0614581 13.6136 0 13.762 0 13.9167C0 14.0714 0.0614581 14.2197 0.170854 14.3291C0.280251 14.4385 0.428624 14.5 0.583333 14.5H16.9167C17.0714 14.5 17.2197 14.4385 17.3291 14.3291C17.4385 14.2197 17.5 14.0714 17.5 13.9167C17.5 13.762 17.4385 13.6136 17.3291 13.5042C17.2197 13.3948 17.0714 13.3333 16.9167 13.3333ZM11.6667 5.16667H15.1667V13.3333H11.6667V5.16667ZM10.5 8.66667V13.3333H7V8.66667H10.5ZM2.33333 1.66667H5.83333V13.3333H2.33333V1.66667ZM4.66667 3.41667V4.58333C4.66667 4.73804 4.60521 4.88642 4.49581 4.99581C4.38642 5.10521 4.23804 5.16667 4.08333 5.16667C3.92862 5.16667 3.78025 5.10521 3.67085 4.99581C3.56146 4.88642 3.5 4.73804 3.5 4.58333V3.41667C3.5 3.26196 3.56146 3.11358 3.67085 3.00419C3.78025 2.89479 3.92862 2.83333 4.08333 2.83333C4.23804 2.83333 4.38642 2.89479 4.49581 3.00419C4.60521 3.11358 4.66667 3.26196 4.66667 3.41667ZM4.66667 6.91667V8.08333C4.66667 8.23804 4.60521 8.38642 4.49581 8.49581C4.38642 8.60521 4.23804 8.66667 4.08333 8.66667C3.92862 8.66667 3.78025 8.60521 3.67085 8.49581C3.56146 8.38642 3.5 8.23804 3.5 8.08333V6.91667C3.5 6.76196 3.56146 6.61358 3.67085 6.50419C3.78025 6.39479 3.92862 6.33333 4.08333 6.33333C4.23804 6.33333 4.38642 6.39479 4.49581 6.50419C4.60521 6.61358 4.66667 6.76196 4.66667 6.91667ZM4.66667 10.4167V11.5833C4.66667 11.738 4.60521 11.8864 4.49581 11.9958C4.38642 12.1052 4.23804 12.1667 4.08333 12.1667C3.92862 12.1667 3.78025 12.1052 3.67085 11.9958C3.56146 11.8864 3.5 11.738 3.5 11.5833V10.4167C3.5 10.262 3.56146 10.1136 3.67085 10.0042C3.78025 9.89479 3.92862 9.83333 4.08333 9.83333C4.23804 9.83333 4.38642 9.89479 4.49581 10.0042C4.60521 10.1136 4.66667 10.262 4.66667 10.4167ZM8.16667 11.5833V10.4167C8.16667 10.262 8.22812 10.1136 8.33752 10.0042C8.44692 9.89479 8.59529 9.83333 8.75 9.83333C8.90471 9.83333 9.05308 9.89479 9.16248 10.0042C9.27188 10.1136 9.33333 10.262 9.33333 10.4167V11.5833C9.33333 11.738 9.27188 11.8864 9.16248 11.9958C9.05308 12.1052 8.90471 12.1667 8.75 12.1667C8.59529 12.1667 8.44692 12.1052 8.33752 11.9958C8.22812 11.8864 8.16667 11.738 8.16667 11.5833ZM12.8333 11.5833V10.4167C12.8333 10.262 12.8948 10.1136 13.0042 10.0042C13.1136 9.89479 13.262 9.83333 13.4167 9.83333C13.5714 9.83333 13.7197 9.89479 13.8291 10.0042C13.9385 10.1136 14 10.262 14 10.4167V11.5833C14 11.738 13.9385 11.8864 13.8291 11.9958C13.7197 12.1052 13.5714 12.1667 13.4167 12.1667C13.262 12.1667 13.1136 12.1052 13.0042 11.9958C12.8948 11.8864 12.8333 11.738 12.8333 11.5833ZM12.8333 8.08333V6.91667C12.8333 6.76196 12.8948 6.61358 13.0042 6.50419C13.1136 6.39479 13.262 6.33333 13.4167 6.33333C13.5714 6.33333 13.7197 6.39479 13.8291 6.50419C13.9385 6.61358 14 6.76196 14 6.91667V8.08333C14 8.23804 13.9385 8.38642 13.8291 8.49581C13.7197 8.60521 13.5714 8.66667 13.4167 8.66667C13.262 8.66667 13.1136 8.60521 13.0042 8.49581C12.8948 8.38642 12.8333 8.23804 12.8333 8.08333Z" fill="#1B1B1B"/>
</svg>
