<svg width="20" height="13" viewBox="0 0 20 13" fill="none" xmlns="http://www.w3.org/2000/svg">
<path d="M18.8889 4.75484H16.5468L13.0627 1.27071C12.9597 1.16733 12.8372 1.08535 12.7024 1.0295C12.5675 0.973656 12.4229 0.945044 12.277 0.945314H3.35556C3.17265 0.945261 2.99256 0.990362 2.83126 1.07662C2.66997 1.16287 2.53247 1.28761 2.43095 1.43976L0.0793663 4.96674C0.0274067 5.04507 -0.000208009 5.13703 1.17975e-06 5.23103V9.04055C1.17975e-06 9.33524 0.117064 9.61785 0.325438 9.82622C0.533812 10.0346 0.816427 10.1517 1.11111 10.1517H2.5873C2.6966 10.6899 2.9886 11.1738 3.41385 11.5214C3.83909 11.8689 4.37142 12.0588 4.92064 12.0588C5.46985 12.0588 6.00218 11.8689 6.42743 11.5214C6.85267 11.1738 7.14468 10.6899 7.25397 10.1517H12.746C12.8553 10.6899 13.1473 11.1738 13.5726 11.5214C13.9978 11.8689 14.5301 12.0588 15.0794 12.0588C15.6286 12.0588 16.1609 11.8689 16.5862 11.5214C17.0114 11.1738 17.3034 10.6899 17.4127 10.1517H18.8889C19.1836 10.1517 19.4662 10.0346 19.6746 9.82622C19.8829 9.61785 20 9.33524 20 9.04055V5.86595C20 5.57126 19.8829 5.28865 19.6746 5.08027C19.4662 4.8719 19.1836 4.75484 18.8889 4.75484ZM3.22381 1.96833C3.23828 1.94664 3.25787 1.92885 3.28085 1.91653C3.30383 1.90421 3.32948 1.89774 3.35556 1.8977H12.277C12.319 1.89787 12.3593 1.91471 12.3889 1.94452L15.2 4.75484H1.36587L3.22381 1.96833ZM4.92064 11.104C4.63809 11.104 4.36189 11.0203 4.12696 10.8633C3.89204 10.7063 3.70893 10.4832 3.60081 10.2222C3.49268 9.96112 3.46439 9.67389 3.51951 9.39677C3.57464 9.11965 3.71069 8.86511 3.91048 8.66532C4.11027 8.46553 4.36482 8.32947 4.64194 8.27435C4.91905 8.21923 5.20629 8.24752 5.46733 8.35564C5.72836 8.46377 5.95148 8.64687 6.10845 8.8818C6.26542 9.11673 6.34921 9.39293 6.34921 9.67547C6.34921 10.0544 6.1987 10.4177 5.93079 10.6856C5.66288 10.9535 5.29952 11.104 4.92064 11.104ZM15.0794 11.104C14.7968 11.104 14.5206 11.0203 14.2857 10.8633C14.0508 10.7063 13.8677 10.4832 13.7595 10.2222C13.6514 9.96112 13.6231 9.67389 13.6782 9.39677C13.7334 9.11965 13.8694 8.86511 14.0692 8.66532C14.269 8.46553 14.5235 8.32947 14.8007 8.27435C15.0778 8.21923 15.365 8.24752 15.6261 8.35564C15.8871 8.46377 16.1102 8.64687 16.2672 8.8818C16.4242 9.11673 16.5079 9.39293 16.5079 9.67547C16.5079 10.0544 16.3574 10.4177 16.0895 10.6856C15.8216 10.9535 15.4582 11.104 15.0794 11.104ZM19.0476 9.04055C19.0476 9.08265 19.0309 9.12302 19.0011 9.15279C18.9714 9.18256 18.931 9.19928 18.8889 9.19928H17.4127C17.3034 8.66105 17.0114 8.17715 16.5862 7.82958C16.1609 7.482 15.6286 7.29213 15.0794 7.29213C14.5301 7.29213 13.9978 7.482 13.5726 7.82958C13.1473 8.17715 12.8553 8.66105 12.746 9.19928H7.25397C7.14468 8.66105 6.85267 8.17715 6.42743 7.82958C6.00218 7.482 5.46985 7.29213 4.92064 7.29213C4.37142 7.29213 3.83909 7.482 3.41385 7.82958C2.9886 8.17715 2.6966 8.66105 2.5873 9.19928H1.11111C1.06901 9.19928 1.02864 9.18256 0.998873 9.15279C0.969105 9.12302 0.952382 9.08265 0.952382 9.04055V5.70722H18.8889C18.931 5.70722 18.9714 5.72394 19.0011 5.75371C19.0309 5.78348 19.0476 5.82385 19.0476 5.86595V9.04055Z" fill="#1B1B1B"/>
</svg>
