<svg width="15" height="17" viewBox="0 0 15 17" fill="none" xmlns="http://www.w3.org/2000/svg">
<path d="M13.5385 1.73077H11.6923V1.11538C11.6923 0.952174 11.6275 0.795649 11.5121 0.680242C11.3967 0.564835 11.2401 0.5 11.0769 0.5C10.9137 0.5 10.7572 0.564835 10.6418 0.680242C10.5264 0.795649 10.4615 0.952174 10.4615 1.11538V1.73077H4.30769V1.11538C4.30769 0.952174 4.24286 0.795649 4.12745 0.680242C4.01204 0.564835 3.85552 0.5 3.69231 0.5C3.5291 0.5 3.37257 0.564835 3.25717 0.680242C3.14176 0.795649 3.07692 0.952174 3.07692 1.11538V1.73077H1.23077C0.904349 1.73077 0.591298 1.86044 0.360484 2.09125C0.12967 2.32207 0 2.63512 0 2.96154V15.2692C0 15.5957 0.12967 15.9087 0.360484 16.1395C0.591298 16.3703 0.904349 16.5 1.23077 16.5H13.5385C13.8649 16.5 14.1779 16.3703 14.4087 16.1395C14.6396 15.9087 14.7692 15.5957 14.7692 15.2692V2.96154C14.7692 2.63512 14.6396 2.32207 14.4087 2.09125C14.1779 1.86044 13.8649 1.73077 13.5385 1.73077ZM3.07692 2.96154V3.57692C3.07692 3.74013 3.14176 3.89666 3.25717 4.01207C3.37257 4.12747 3.5291 4.19231 3.69231 4.19231C3.85552 4.19231 4.01204 4.12747 4.12745 4.01207C4.24286 3.89666 4.30769 3.74013 4.30769 3.57692V2.96154H10.4615V3.57692C10.4615 3.74013 10.5264 3.89666 10.6418 4.01207C10.7572 4.12747 10.9137 4.19231 11.0769 4.19231C11.2401 4.19231 11.3967 4.12747 11.5121 4.01207C11.6275 3.89666 11.6923 3.74013 11.6923 3.57692V2.96154H13.5385V5.42308H1.23077V2.96154H3.07692ZM13.5385 15.2692H1.23077V6.65385H13.5385V15.2692ZM8.61539 10.9615C8.61539 11.205 8.5432 11.4429 8.40796 11.6453C8.27272 11.8477 8.0805 12.0055 7.85561 12.0986C7.63072 12.1918 7.38325 12.2161 7.1445 12.1687C6.90576 12.1212 6.68646 12.004 6.51433 11.8318C6.3422 11.6597 6.22498 11.4404 6.1775 11.2016C6.13001 10.9629 6.15438 10.7154 6.24753 10.4905C6.34069 10.2656 6.49844 10.0734 6.70084 9.93819C6.90324 9.80295 7.14119 9.73077 7.38462 9.73077C7.71104 9.73077 8.02409 9.86044 8.2549 10.0913C8.48571 10.3221 8.61539 10.6351 8.61539 10.9615Z" fill="#1B1B1B"/>
</svg>
