<svg width="20" height="15" viewBox="0 0 20 15" fill="none" xmlns="http://www.w3.org/2000/svg">
<path d="M19.9636 5.61298L18.7771 2.64687C18.6897 2.42623 18.5379 2.23706 18.3413 2.10402C18.1448 1.97099 17.9127 1.90028 17.6754 1.90111H14.5763V1.05535C14.5763 0.920494 14.5227 0.791161 14.4273 0.695804C14.332 0.600446 14.2027 0.546875 14.0678 0.546875H1.18644C0.871777 0.546875 0.570001 0.671875 0.347501 0.894376C0.125 1.11688 0 1.41865 0 1.73332V11.2248C0 11.5395 0.125 11.8413 0.347501 12.0638C0.570001 12.2863 0.871777 12.4113 1.18644 12.4113H2.76271C2.87941 12.986 3.19122 13.5027 3.64529 13.8738C4.09937 14.245 4.66779 14.4477 5.25424 14.4477C5.84069 14.4477 6.40911 14.245 6.86318 13.8738C7.31726 13.5027 7.62906 12.986 7.74576 12.4113H12.2542C12.3709 12.986 12.6827 13.5027 13.1368 13.8738C13.5909 14.245 14.1593 14.4477 14.7458 14.4477C15.3322 14.4477 15.9006 14.245 16.3547 13.8738C16.8088 13.5027 17.1206 12.986 17.2373 12.4113H18.8136C19.1282 12.4113 19.43 12.2863 19.6525 12.0638C19.875 11.8413 20 11.5395 20 11.2248V5.80111C19.9999 5.73666 19.9875 5.67281 19.9636 5.61298ZM14.5763 2.91976H17.6763C17.7102 2.91972 17.7434 2.92988 17.7715 2.94892C17.7996 2.96796 17.8213 2.995 17.8339 3.02654L18.7407 5.29264H14.5763V2.91976ZM1.01695 1.73332C1.01695 1.68836 1.03481 1.64525 1.06659 1.61347C1.09838 1.58168 1.14149 1.56382 1.18644 1.56382H13.5593V7.32654H1.01695V1.73332ZM5.25424 13.4282C4.95254 13.4282 4.65761 13.3388 4.40676 13.1712C4.1559 13.0035 3.96039 12.7653 3.84493 12.4866C3.72947 12.2078 3.69927 11.9011 3.75812 11.6052C3.81698 11.3093 3.96227 11.0375 4.1756 10.8242C4.38893 10.6108 4.66074 10.4656 4.95664 10.4067C5.25254 10.3478 5.55926 10.378 5.83799 10.4935C6.11673 10.609 6.35497 10.8045 6.52258 11.0553C6.6902 11.3062 6.77966 11.6011 6.77966 11.9028C6.77966 12.3074 6.61895 12.6954 6.33287 12.9814C6.0468 13.2675 5.6588 13.4282 5.25424 13.4282ZM12.2542 11.3943H7.74576C7.62906 10.8196 7.31726 10.3029 6.86318 9.93177C6.40911 9.56063 5.84069 9.35789 5.25424 9.35789C4.66779 9.35789 4.09937 9.56063 3.64529 9.93177C3.19122 10.3029 2.87941 10.8196 2.76271 11.3943H1.18644C1.14149 11.3943 1.09838 11.3765 1.06659 11.3447C1.03481 11.3129 1.01695 11.2698 1.01695 11.2248V8.34349H13.5593V9.65535C13.2271 9.83115 12.9378 10.0782 12.7122 10.3788C12.4866 10.6795 12.3302 11.0262 12.2542 11.3943ZM14.7458 13.4282C14.4441 13.4282 14.1491 13.3388 13.8983 13.1712C13.6474 13.0035 13.4519 12.7653 13.3365 12.4866C13.221 12.2078 13.1908 11.9011 13.2497 11.6052C13.3085 11.3093 13.4538 11.0375 13.6671 10.8242C13.8805 10.6108 14.1523 10.4656 14.4482 10.4067C14.7441 10.3478 15.0508 10.378 15.3295 10.4935C15.6083 10.609 15.8465 10.8045 16.0141 11.0553C16.1817 11.3062 16.2712 11.6011 16.2712 11.9028C16.2712 12.3074 16.1105 12.6954 15.8244 12.9814C15.5383 13.2675 15.1503 13.4282 14.7458 13.4282ZM18.9831 11.2248C18.9831 11.2698 18.9652 11.3129 18.9334 11.3447C18.9016 11.3765 18.8585 11.3943 18.8136 11.3943H17.2373C17.1193 10.8204 16.8071 10.3048 16.3532 9.93428C15.8994 9.56378 15.3316 9.36111 14.7458 9.36043C14.689 9.36043 14.6322 9.36044 14.5763 9.36637V6.30959H18.9831V11.2248Z" fill="#1B1B1B"/>
</svg>
