<svg width="45" height="30" viewBox="0 0 45 30" fill="none" xmlns="http://www.w3.org/2000/svg">
<path d="M44.8254 15.3926L40.1379 8.83008C39.9621 8.58398 39.6773 8.4375 39.375 8.4375H31.875V0.9375C31.875 0.419531 31.4555 0 30.9375 0H0.9375C0.419531 0 0 0.419531 0 0.9375V21.1418L1.29375 22.5H2.8125V26.25C2.8125 26.768 3.23203 27.1875 3.75 27.1875H7.65703C7.65703 27.1805 7.6582 27.1746 7.65938 27.1676L7.96875 25.3125H4.6875V22.5H8.4375L8.75039 20.625H1.875V1.875H30V20.625H23.1246L23.4375 22.5H30V25.3125H23.9062L24.2156 27.1676C24.2156 27.1746 24.218 27.1805 24.218 27.1875H33.2051C33.9305 28.841 35.5816 30 37.5 30C39.4184 30 41.0695 28.841 41.7949 27.1875H44.0625C44.5805 27.1875 45 26.768 45 26.25V15.9375C45 15.7418 44.9391 15.552 44.8254 15.3926ZM37.5 10.3125H38.8922L42.9105 15.9375H37.5V10.3125ZM37.5 28.125C35.9496 28.125 34.6875 26.8629 34.6875 25.3125C34.6875 23.7621 35.9496 22.5 37.5 22.5C39.0504 22.5 40.3125 23.7621 40.3125 25.3125C40.3125 26.8629 39.0504 28.125 37.5 28.125ZM43.125 19.6875H42.1875C41.6695 19.6875 41.25 20.107 41.25 20.625C41.25 21.143 41.6695 21.5625 42.1875 21.5625H43.125V25.3125H42.1875C42.1875 22.7273 40.0852 20.625 37.5 20.625C34.9148 20.625 32.8125 22.7273 32.8125 25.3125H31.875V10.3125H35.625V16.875C35.625 17.393 36.0445 17.8125 36.5625 17.8125H43.125V19.6875ZM21.2496 20.7293C21.1898 20.6895 21.1254 20.6555 21.0598 20.625H19.8152C19.7566 20.6555 19.7027 20.6895 19.6535 20.7293L17.4457 22.5H20.8043L21.4406 21.948C21.8391 21.6035 21.7453 21.0574 21.2496 20.7293ZM17.1246 22.5L17.0625 20.625H14.8125L14.7422 22.7508L12.2215 20.7293C12.1723 20.6895 12.1184 20.6555 12.0598 20.625H10.8152C10.7496 20.6555 10.6852 20.6895 10.6254 20.7293C10.3781 20.8934 10.2316 21.109 10.1953 21.3281C10.1578 21.5496 10.234 21.7746 10.4344 21.948L11.5945 22.9547C12.0352 22.6664 12.5602 22.5 13.125 22.5C14.6754 22.5 15.9375 23.7621 15.9375 25.3125C15.9375 25.6383 15.8824 25.9512 15.7793 26.243C16.1637 26.2828 16.5668 26.1762 16.8574 25.923L17.8078 25.0992C17.7645 24.1266 17.4223 23.2313 16.8727 22.5H17.1246ZM9.37969 28.125C9.6457 28.4801 9.96211 28.7965 10.3184 29.0625C11.1 29.6508 12.0727 30 13.125 30C14.1773 30 15.15 29.6508 15.9316 29.0625C16.2879 28.7965 16.6043 28.4801 16.8703 28.125H9.37969Z" fill="#1B1B1B"/>
<path d="M9.375 16.875L9.06211 18.75H14.8746L14.9367 16.875H9.375ZM27.1875 3.75H4.6875C4.16953 3.75 3.75 4.16953 3.75 4.6875V17.8125C3.75 18.3305 4.16953 18.75 4.6875 18.75H27.1875C27.7055 18.75 28.125 18.3305 28.125 17.8125V4.6875C28.125 4.16953 27.7055 3.75 27.1875 3.75ZM26.25 16.875H5.625V5.625H26.25V16.875ZM9.375 16.875L9.06211 18.75H14.8746L14.9367 16.875H9.375Z" fill="#1B1B1B"/>
<path d="M37.5 26.25C38.0178 26.25 38.4375 25.8303 38.4375 25.3125C38.4375 24.7947 38.0178 24.375 37.5 24.375C36.9822 24.375 36.5625 24.7947 36.5625 25.3125C36.5625 25.8303 36.9822 26.25 37.5 26.25Z" fill="#1B1B1B"/>
<path d="M14.0297 25.0664L13.241 24.382C13.6219 24.4289 13.9313 24.7043 14.0297 25.0664Z" fill="#1B1B1B"/>
<path d="M0 22.5H2.8125L0 20.625V22.5Z" fill="#1B1B1B"/>
<path d="M10.1953 21.3281C10.2316 21.109 10.3781 20.8934 10.6254 20.7293C10.6852 20.6895 10.7496 20.6555 10.8152 20.625C11.2172 20.4434 11.707 20.4434 12.0598 20.625C12.1184 20.6555 12.1723 20.6895 12.2215 20.7293L14.7422 22.7508L14.8125 20.625L14.8746 18.75H17.0004L17.0625 20.625L17.1246 22.5H17.4457L19.6535 20.7293C19.7027 20.6895 19.7566 20.6555 19.8152 20.625C20.168 20.4434 20.6578 20.4434 21.0598 20.625C21.1254 20.6555 21.1898 20.6895 21.2496 20.7293C21.7453 21.0574 21.8391 21.6035 21.4406 21.948L20.8043 22.5L17.8078 25.0992L16.8574 25.923C16.5668 26.1762 16.1637 26.2828 15.7793 26.243C15.5004 26.2137 15.2297 26.107 15.0176 25.923L14.0297 25.0664L13.241 24.382L11.5945 22.9547L10.4344 21.948C10.234 21.7746 10.1578 21.5496 10.1953 21.3281Z" fill="white"/>
<path d="M25.3125 29.0625H6.5625L8.4375 18.75H9.06211L8.75039 20.625L8.4375 22.5L7.96875 25.3125L7.65938 27.1676C7.65938 27.1746 7.65703 27.1805 7.65703 27.1875C7.58672 27.6809 7.96992 28.125 8.47031 28.125H23.4047C23.9051 28.125 24.2883 27.6809 24.218 27.1875C24.218 27.1805 24.2168 27.1746 24.2156 27.1676L23.9062 25.3125L23.4375 22.5L23.1246 20.625L22.8129 18.75H24.375L25.3125 29.0625Z" fill="white"/>
<path d="M25.302 30H6.57305C6.07266 30 5.68828 29.557 5.75859 29.0613L7.5 16.875H9.375L9.06211 18.75L8.75039 20.625L8.4375 22.5L7.96875 25.3125L7.65938 27.1676C7.65938 27.1746 7.65703 27.1805 7.65703 27.1875C7.58672 27.6809 7.96992 28.125 8.47031 28.125H23.4047C23.9051 28.125 24.2883 27.6809 24.218 27.1875C24.218 27.1805 24.2168 27.1746 24.2156 27.1676L23.9062 25.3125L23.4375 22.5L23.1246 20.625L22.8129 18.75L22.5 16.875H24.375L26.1164 29.0613C26.1867 29.557 25.8023 30 25.302 30Z" fill="#1B1B1B"/>
<path d="M21.4406 21.948L20.8043 22.5L17.8078 25.0992L16.8574 25.923C16.5668 26.1762 16.1637 26.2828 15.7793 26.243C15.5004 26.2137 15.2297 26.107 15.0176 25.923L14.0297 25.0664L13.241 24.382L11.5945 22.9547L10.4344 21.948C10.234 21.7746 10.1578 21.5496 10.1953 21.3281C10.2316 21.109 10.3781 20.8934 10.6254 20.7293C10.6852 20.6895 10.7496 20.6555 10.8152 20.625C11.2172 20.4434 11.707 20.4434 12.0598 20.625C12.1184 20.6555 12.1723 20.6895 12.2215 20.7293L14.7422 22.7508L14.8125 20.625L14.8746 18.75L14.9367 16.875L14.9801 15.5859C14.9918 15.259 15.4195 15 15.9375 15C16.4555 15 16.8832 15.259 16.8949 15.5859L17.0004 18.75L17.0625 20.625L17.1246 22.5L17.1328 22.7508L17.4457 22.5L19.6535 20.7293C19.7027 20.6895 19.7566 20.6555 19.8152 20.625C20.168 20.4434 20.6578 20.4434 21.0598 20.625C21.1254 20.6555 21.1898 20.6895 21.2496 20.7293C21.7453 21.0574 21.8391 21.6035 21.4406 21.948Z" fill="#1B1B1B"/>
</svg>
