<svg width="60" height="30" viewBox="0 0 60 30" fill="none" xmlns="http://www.w3.org/2000/svg">
<path d="M5.35078 8.16328C5.71641 7.79766 5.71641 7.20352 5.35078 6.83789C5.16797 6.65508 4.92773 6.56367 4.6875 6.56367C4.44727 6.56367 4.2082 6.65508 4.02422 6.83789L0.274219 10.5867C-0.0914062 10.9523 -0.0914062 11.5465 0.274219 11.9121L4.02422 15.6621C4.38984 16.0277 4.98398 16.0277 5.34961 15.6621C5.71523 15.2965 5.71523 14.7023 5.34961 14.3367L3.20039 12.1875H12.1875C12.7055 12.1875 13.125 11.768 13.125 11.25C13.125 10.732 12.7055 10.3125 12.1875 10.3125H3.20039L5.34961 8.16328H5.35078Z" fill="#1B1B1B"/>
<path d="M59.8254 15.3926L55.1379 8.83008C54.9621 8.58398 54.6773 8.4375 54.375 8.4375H46.875V0.9375C46.875 0.419531 46.4555 0 45.9375 0H15.9375C15.4195 0 15 0.419531 15 0.9375V21.1418L6.87773 28.3617C6.49101 28.7063 6.45586 29.298 6.80039 29.6848C6.98555 29.8934 7.24336 30 7.50117 30C7.72266 30 7.94531 29.9215 8.12344 29.7633L16.2949 22.5H17.8137V26.25C17.8137 26.768 18.2332 27.1875 18.7512 27.1875H23.8312C24.5566 28.841 26.2078 30 28.1262 30C30.0445 30 31.6957 28.841 32.4211 27.1875H48.2062C48.9316 28.841 50.5828 30 52.5012 30C54.4195 30 56.0707 28.841 56.7961 27.1875H59.0637C59.5816 27.1875 60.0012 26.768 60.0012 26.25V15.9375C60.0012 15.7418 59.9402 15.552 59.8266 15.3926H59.8254ZM23.4375 25.3125H19.6875V22.5H24.3773C23.7879 23.284 23.4375 24.2578 23.4375 25.3125ZM28.125 28.125C26.5746 28.125 25.3125 26.8629 25.3125 25.3125C25.3125 23.7621 26.5746 22.5 28.125 22.5C29.6754 22.5 30.9375 23.7621 30.9375 25.3125C30.9375 26.8629 29.6754 28.125 28.125 28.125ZM45 25.3125H32.8125C32.8125 24.2578 32.4621 23.284 31.8727 22.5H45V25.3125ZM45 20.625H16.875V1.875H45V20.625ZM52.5 10.3125H53.8922L57.9105 15.9375H52.5V10.3125ZM52.5 28.125C50.9496 28.125 49.6875 26.8629 49.6875 25.3125C49.6875 23.7621 50.9496 22.5 52.5 22.5C54.0504 22.5 55.3125 23.7621 55.3125 25.3125C55.3125 26.8629 54.0504 28.125 52.5 28.125ZM58.125 19.6875H57.1875C56.6695 19.6875 56.25 20.107 56.25 20.625C56.25 21.143 56.6695 21.5625 57.1875 21.5625H58.125V25.3125H57.1875C57.1875 22.7273 55.0852 20.625 52.5 20.625C49.9148 20.625 47.8125 22.7273 47.8125 25.3125H46.875V10.3125H50.625V16.875C50.625 17.393 51.0445 17.8125 51.5625 17.8125H58.125V19.6875Z" fill="#1B1B1B"/>
<path d="M52.5 26.25C53.0178 26.25 53.4375 25.8303 53.4375 25.3125C53.4375 24.7947 53.0178 24.375 52.5 24.375C51.9822 24.375 51.5625 24.7947 51.5625 25.3125C51.5625 25.8303 51.9822 26.25 52.5 26.25Z" fill="#1B1B1B"/>
<path d="M28.125 26.25C28.6428 26.25 29.0625 25.8303 29.0625 25.3125C29.0625 24.7947 28.6428 24.375 28.125 24.375C27.6072 24.375 27.1875 24.7947 27.1875 25.3125C27.1875 25.8303 27.6072 26.25 28.125 26.25Z" fill="#1B1B1B"/>
</svg>
