<svg width="11" height="11" viewBox="0 0 11 11" fill="none" xmlns="http://www.w3.org/2000/svg">
<path d="M10.3169 10.595H7.48861C7.35594 10.595 7.2287 10.5423 7.13488 10.4485C7.04107 10.3547 6.98836 10.2275 6.98836 10.0948C6.98836 9.96212 7.04107 9.83488 7.13488 9.74107C7.2287 9.64725 7.35594 9.59455 7.48861 9.59455L9.11001 9.59499L1.62482 2.1098L1.62526 3.73119C1.62526 3.86387 1.57256 3.99111 1.47874 4.08492C1.38492 4.17874 1.25768 4.23144 1.12501 4.23144C0.992335 4.23144 0.865095 4.17874 0.77128 4.08492C0.677465 3.99111 0.62476 3.86387 0.62476 3.73119L0.62476 0.902926C0.624723 0.837222 0.637638 0.772155 0.662765 0.711445C0.687892 0.650736 0.724738 0.595574 0.771198 0.549114C0.817658 0.502654 0.87282 0.465808 0.933529 0.440681C0.994239 0.415554 1.05931 0.402639 1.12501 0.402676L3.95328 0.402676C4.08595 0.402676 4.21319 0.455381 4.30701 0.549196C4.40082 0.643011 4.45353 0.770251 4.45353 0.902926C4.45353 1.0356 4.40082 1.16284 4.30701 1.25666C4.21319 1.35047 4.08595 1.40318 3.95328 1.40318L2.33189 1.40273L9.81707 8.88792L9.81663 7.26653C9.81663 7.13385 9.86934 7.00661 9.96315 6.9128C10.057 6.81898 10.1842 6.76628 10.3169 6.76628C10.4496 6.76628 10.5768 6.81898 10.6706 6.9128C10.7644 7.00661 10.8171 7.13385 10.8171 7.26653L10.8171 10.0948C10.8172 10.1605 10.8043 10.2256 10.7791 10.2863C10.754 10.347 10.7172 10.4021 10.6707 10.4486C10.6242 10.4951 10.5691 10.5319 10.5084 10.557C10.4477 10.5822 10.3826 10.5951 10.3169 10.595Z" fill="#2C2F3F"/>
</svg>
