<svg width="20" height="15" viewBox="0 0 20 15" fill="none" xmlns="http://www.w3.org/2000/svg">
<path d="M17.4603 5.15362V4.95759C17.4591 3.82133 17.0071 2.73198 16.2037 1.92852C15.4002 1.12507 14.3109 0.673135 13.1746 0.671875H12.5397C12.245 0.671875 11.9624 0.788938 11.754 0.997312C11.5456 1.20569 11.4286 1.4883 11.4286 1.78299V11.4655H9.84127V3.05283C9.84127 2.92653 9.7911 2.80541 9.7018 2.71611C9.61249 2.62681 9.49137 2.57664 9.36508 2.57664H1.11111C0.816426 2.57664 0.533811 2.6937 0.325437 2.90207C0.117063 3.11045 0 3.39306 0 3.68775V11.9417C0 12.4414 0.157232 12.9285 0.449423 13.3339C0.741615 13.7393 1.15395 14.0425 1.62803 14.2005C2.10211 14.3585 2.61389 14.3634 3.09087 14.2144C3.56786 14.0654 3.98588 13.7701 4.28571 13.3703C4.56099 13.7375 4.93654 14.0174 5.36715 14.1762C5.79777 14.3349 6.2651 14.3659 6.71288 14.2652C7.16067 14.1646 7.56984 13.9367 7.89112 13.609C8.2124 13.2812 8.43212 12.8676 8.52381 12.4179H15.2857C15.4032 12.9966 15.7315 13.5109 16.2069 13.8611C16.6823 14.2113 17.2709 14.3723 17.8583 14.313C18.4458 14.2537 18.9903 13.9782 19.386 13.54C19.7818 13.1018 20.0006 12.5322 20 11.9417V8.13219C19.999 7.41509 19.743 6.72171 19.2777 6.17604C18.8124 5.63036 18.1682 5.26796 17.4603 5.15362ZM12.381 1.78299C12.381 1.74089 12.3977 1.70051 12.4274 1.67075C12.4572 1.64098 12.4976 1.62426 12.5397 1.62426H13.1746C14.0587 1.62426 14.9065 1.97545 15.5316 2.60057C16.1567 3.22569 16.5079 4.07353 16.5079 4.95759V5.59251C16.5079 5.7188 16.5581 5.83992 16.6474 5.92923C16.7367 6.01853 16.8578 6.0687 16.9841 6.0687C17.5314 6.0687 18.0563 6.2861 18.4432 6.67308C18.8302 7.06006 19.0476 7.58492 19.0476 8.13219V10.037C18.7264 9.79593 18.3494 9.64007 17.9518 9.58387C17.5542 9.52768 17.1488 9.57297 16.7734 9.71554C16.3979 9.8581 16.0647 10.0933 15.8046 10.3993C15.5445 10.7053 15.366 11.072 15.2857 11.4655H12.381V1.78299ZM1.11111 3.52902H8.88889V11.4655H8.52381C8.43212 11.0158 8.2124 10.6022 7.89112 10.2745C7.56984 9.94671 7.16067 9.71881 6.71288 9.61819C6.2651 9.51756 5.79777 9.5485 5.36715 9.70728C4.93654 9.86605 4.56099 10.1459 4.28571 10.5131C3.90683 10.008 3.34279 9.674 2.71767 9.58469C2.09255 9.49539 1.45756 9.65807 0.952381 10.037V3.68775C0.952381 3.64565 0.969104 3.60528 0.998872 3.57551C1.02864 3.54574 1.06901 3.52902 1.11111 3.52902ZM2.38095 13.3703C2.09841 13.3703 1.82221 13.2865 1.58728 13.1295C1.35235 12.9726 1.16925 12.7494 1.06112 12.4884C0.952999 12.2274 0.924709 11.9401 0.979831 11.663C1.03495 11.3859 1.17101 11.1314 1.3708 10.9316C1.57059 10.7318 1.82514 10.5957 2.10225 10.5406C2.37937 10.4855 2.66661 10.5138 2.92764 10.6219C3.18868 10.73 3.41179 10.9131 3.56877 11.148C3.72574 11.383 3.80952 11.6592 3.80952 11.9417C3.80952 12.3206 3.65901 12.684 3.3911 12.9519C3.1232 13.2198 2.75983 13.3703 2.38095 13.3703ZM6.19048 13.3703C5.90793 13.3703 5.63173 13.2865 5.3968 13.1295C5.16188 12.9726 4.97877 12.7494 4.87065 12.4884C4.76252 12.2274 4.73423 11.9401 4.78935 11.663C4.84448 11.3859 4.98053 11.1314 5.18032 10.9316C5.38011 10.7318 5.63466 10.5957 5.91178 10.5406C6.18889 10.4855 6.47613 10.5138 6.73717 10.6219C6.9982 10.73 7.22132 10.9131 7.37829 11.148C7.53526 11.383 7.61905 11.6592 7.61905 11.9417C7.61905 12.3206 7.46854 12.684 7.20063 12.9519C6.93272 13.2198 6.56936 13.3703 6.19048 13.3703ZM17.619 13.3703C17.3365 13.3703 17.0603 13.2865 16.8254 13.1295C16.5904 12.9726 16.4073 12.7494 16.2992 12.4884C16.1911 12.2274 16.1628 11.9401 16.2179 11.663C16.273 11.3859 16.4091 11.1314 16.6089 10.9316C16.8087 10.7318 17.0632 10.5957 17.3403 10.5406C17.6175 10.4855 17.9047 10.5138 18.1657 10.6219C18.4268 10.73 18.6499 10.9131 18.8069 11.148C18.9638 11.383 19.0476 11.6592 19.0476 11.9417C19.0476 12.3206 18.8971 12.684 18.6292 12.9519C18.3613 13.2198 17.9979 13.3703 17.619 13.3703Z" fill="#1B1B1B"/>
</svg>
